<svg xmlns="http://www.w3.org/2000/svg" width="1124" height="356" viewBox="0 0 1124 356">
  <defs>
    <style>
      .cls-1 {
        fill: #393a49;
        fill-rule: evenodd;
      }

      .cls-2 {
        fill: #ed1c24;
      }
    </style>
  </defs>
  <path class="cls-1" d="M1023.1,260.205V196.587c0-19.489-8.96-28.449-24.4-28.449-16.786,0-28.872,10.3-28.872,32.481v59.586H934.915V139.689h33.348V153.8c9.4-10.3,23.5-15.9,39.837-15.9,28.43,0,49.91,16.577,49.91,53.314v68.994H1023.1ZM856.808,262c-38.272,0-66.249-25.761-66.249-62.05s27.977-62.05,66.249-62.05,66.025,25.761,66.025,62.05S895.08,262,856.808,262Zm0-95.427c-17.457,0-30.886,12.544-30.886,33.377s13.429,33.377,30.886,33.377,30.663-12.544,30.663-33.377S874.266,166.57,856.808,166.57Zm-113.47-26.881h34.914V260.205H743.338V139.689Zm-32,94.531a23.517,23.517,0,0,0,14.1-4.48l9.4,24.64c-7.162,5.153-17.681,7.617-28.424,7.617-28.424,0-44.986-14.561-44.986-43.234v-49.5H642.848V142.377h18.577V113.033H696.34v29.344h29.991v26.881H696.34v49.057C696.34,228.62,701.935,234.22,711.335,234.22ZM602.79,245.868C593.614,256.4,580.185,262,565.414,262c-30.215,0-51.477-17.025-51.477-54.21v-68.1h34.914v62.946c0,20.161,8.953,29.121,24.4,29.121,16.115,0,27.753-10.3,27.753-32.481V139.689h34.915V260.205H602.79V245.868ZM458.433,93.992h34.915V260.205H458.433V93.992ZM380.327,262c-38.272,0-66.249-25.761-66.249-62.05s27.977-62.05,66.249-62.05,66.024,25.761,66.024,62.05S418.6,262,380.327,262Zm0-95.427c-17.458,0-30.887,12.544-30.887,33.377s13.429,33.377,30.887,33.377,30.662-12.544,30.662-33.377S397.784,166.57,380.327,166.57ZM236.42,260.205L185.838,139.689h36.034l33.348,81.987,34.467-81.987h33.572L272.453,260.205H236.42Zm-43.193-50.4H102.135C105.492,224.812,118.249,234,136.6,234c12.757,0,21.933-3.808,30.215-11.648l18.576,20.16C174.2,255.276,157.416,262,135.707,262,94.077,262,67,235.788,67,199.947c0-36.065,27.529-62.05,64.234-62.05,35.363,0,62.668,23.745,62.668,62.5C193.9,203.083,193.45,206.891,193.227,209.8ZM131.454,164.33c-15.891,0-27.305,9.632-29.767,25.089H161C158.535,174.186,147.121,164.33,131.454,164.33Z"/>
  <circle class="cls-2" cx="760" cy="94" r="20"/>
</svg>
