<svg xmlns="http://www.w3.org/2000/svg" width="1000" height="426" viewBox="0 0 1000 426">
  <metadata><?xpacket begin="﻿" id="W5M0MpCehiHzreSzNTczkc9d"?>
<x:xmpmeta xmlns:x="adobe:ns:meta/" x:xmptk="Adobe XMP Core 5.6-c145 79.163499, 2018/08/13-16:40:22        ">
   <rdf:RDF xmlns:rdf="http://www.w3.org/1999/02/22-rdf-syntax-ns#">
      <rdf:Description rdf:about=""
            xmlns:xmp="http://ns.adobe.com/xap/1.0/">
         <xmp:CreatorTool>Adobe Photoshop CC 2019 (Windows)</xmp:CreatorTool>
      </rdf:Description>
   </rdf:RDF>
</x:xmpmeta>
                                                                                                    
                                                                                                    
                                                                                                    
                                                                                                    
                                                                                                    
                                                                                                    
                                                                                                    
                                                                                                    
                                                                                                    
                                                                                                    
                                                                                                    
                                                                                                    
                                                                                                    
                                                                                                    
                                                                                                    
                                                                                                    
                                                                                                    
                                                                                                    
                                                                                                    
                                                                                                    
                           
<?xpacket end="w"?></metadata>
<defs>
    <style>
      .cls-1 {
        fill: #0072bc;
      }

      .cls-1, .cls-2 {
        fill-rule: evenodd;
      }

      .cls-2 {
        fill: #393a49;
      }

      .cls-3 {
        fill: #ed1c24;
      }
    </style>
  </defs>
  <path id="Play" class="cls-1" d="M156.07,192.032q24.33,0,30.7-.562,20.027-1.684,34.065-9.92,26.953-15.908,26.954-50.163,0-33.691-26.579-53.906A62.866,62.866,0,0,0,195.564,65.5q-14.038-2.992-43.612-2.995H39.086v4.3H40.4q11.976,0.75,19.466,4.4A30.644,30.644,0,0,1,72.216,82.347a38.343,38.343,0,0,1,4.773,14.132q1.4,8.7,1.4,24.8V259.227q0,19.281-2.059,28.451a30.292,30.292,0,0,1-8.048,15.161,31.788,31.788,0,0,1-11.7,7.768q-6.646,2.526-17.5,3.088V318h119.6V313.7q-10.859-.561-17.5-3.088a31.342,31.342,0,0,1-19.654-23.023q-2.154-9.266-2.152-28.357V192.032H156.07ZM119.384,68.309h15.723q15.345,0,19.653.374A49.516,49.516,0,0,1,181.9,79.914a52.069,52.069,0,0,1,15.255,20.87,72.646,72.646,0,0,1,5.334,28.17q0,27.7-18.343,44.36a42.152,42.152,0,0,1-17.875,10.014q-10.016,2.715-28.544,2.714H119.384V68.309Zm139.258-2.433q8.423,0.561,12.915,2.8a19.109,19.109,0,0,1,7.674,7.475q3.18,4.861,4.118,12.707t0.936,26.913V262.488q0,16.446-.843,25.137t-2.9,12.988q-3,6.546-7.861,9.254t-16.1,4.2V318h82.731v-3.931q-14.039-2.614-19.279-7.668a19.43,19.43,0,0,1-5.8-9.818q-1.5-5.892-1.5-18.612l-0.187-14.217V55.02l-53.906,6.738v4.118Zm243.233,242.2q-3.278,2.061-9.078,2.059-12.169,0-15.348-13.29-1.5-6.36-1.5-23.958V203.636q0-13.287-1.5-18.9-3-11.041-15.185-17.969a83.4,83.4,0,0,0-21-7.674,104.322,104.322,0,0,0-24.187-3,107.713,107.713,0,0,0-21.089,2.153,81.955,81.955,0,0,0-18.091,5.521q-13.5,6.555-13.5,16.1a14.173,14.173,0,0,0,4.305,10.576,14.655,14.655,0,0,0,10.669,4.211q9.729,0,13.476-8.8L394.53,175a24.057,24.057,0,0,1,8.985-10.856,24.33,24.33,0,0,1,13.664-3.931,28.191,28.191,0,0,1,12.259,2.808,26.981,26.981,0,0,1,9.64,7.487q8.234,10.107,8.236,32.006,0,10.3-2.246,16.1a22.523,22.523,0,0,1-8.236,10.108,49.86,49.86,0,0,1-13.009,6.738q-7.768,2.808-24.052,6.926-13.854,3.556-21.15,7.019a44.214,44.214,0,0,0-12.915,9.265q-9.924,10.483-9.921,26.017,0,16.845,12.091,26.766t32.711,9.92q16.118,0,28.305-6.738,6.369-3.553,18.933-14.787,6.186,10.67,12,14.974,8.809,6.549,22.119,6.551,24.146,0,30.884-19.653l-3.182-1.872Q505.151,306.021,501.875,308.08Zm-54.187-50.725q0,23.774-5.785,36.312a35.231,35.231,0,0,1-12.222,15.255,29.459,29.459,0,0,1-17.258,5.709,21.633,21.633,0,0,1-17.261-8.049q-6.808-8.044-6.808-20.4a39.011,39.011,0,0,1,8.771-25.268,49.821,49.821,0,0,1,9.513-8.985q5.224-3.741,18.846-11.043a125.092,125.092,0,0,0,22.2-14.787v31.258ZM507.4,163.02a22.417,22.417,0,0,1,11.23,4.3,24.624,24.624,0,0,1,5.615,7.291q2.808,5.049,7.862,17.015l5.594,13.459,38.792,93.292q7.086,17.2,7.087,24.116,0,4.887-3.732,13.907l-5.788,14.286q-7.278,17.478-18.849,17.478a13.957,13.957,0,0,1-4.2-.562q-1.772-.561-7.931-3a29.938,29.938,0,0,0-11.2-2.62,14.262,14.262,0,0,0-9.332,2.9A9.521,9.521,0,0,0,519,372.655q0,6.177,6.084,10.014t16,3.837a32.308,32.308,0,0,0,25.643-11.792q5.988-7.116,15.723-30.7l54.28-131.771q11.791-28.637,17.22-36.873a26.484,26.484,0,0,1,7.394-7.674q3.834-2.43,11.885-4.679V158.9H619.7v4.118q8.985,1.122,13.664,6.074t4.679,13.362q0,10.469-10.107,35.7l-27.328,67.468-31.3-80.175q-7.636-19.249-7.636-26.725,0-8.6,7.3-12.711,3.369-1.868,11.043-2.988V158.9H507.4v4.118Z"/>
  <path class="cls-2" d="M911.679,385.661V366.576c0-5.847-2.686-8.535-7.318-8.535-5.036,0-8.662,3.092-8.662,9.745v17.875H885.224V349.507h10v4.234c2.82-3.092,7.05-4.772,11.952-4.772,8.527,0,14.973,4.973,14.973,15.994v20.7H911.679Zm-49.887.538c-11.481,0-19.874-7.728-19.874-18.615s8.393-18.615,19.874-18.615S881.6,356.7,881.6,367.584,873.274,386.2,861.792,386.2Zm0-28.628c-5.237,0-9.265,3.763-9.265,10.013s4.028,10.013,9.265,10.013,9.2-3.763,9.2-10.013S867.03,357.571,861.792,357.571Zm-34.041-8.064h10.475v36.154H827.751V349.507Zm-9.6,28.359a7.055,7.055,0,0,0,4.231-1.344l2.82,7.392a14.96,14.96,0,0,1-8.528,2.285c-8.527,0-13.5-4.368-13.5-12.97V358.377H797.6v-8.064h5.573v-8.8h10.475v8.8h9v8.064h-9V373.1C813.652,376.186,815.33,377.866,818.15,377.866Zm-32.563,3.494a14.607,14.607,0,0,1-11.213,4.839c-9.064,0-15.443-5.107-15.443-16.263V349.507h10.474V368.39c0,6.049,2.686,8.737,7.319,8.737,4.834,0,8.326-3.092,8.326-9.745V349.507h10.474v36.154h-9.937v-4.3ZM742.28,335.8h10.474v49.863H742.28V335.8Zm-23.432,50.4c-11.482,0-19.875-7.728-19.875-18.615s8.393-18.615,19.875-18.615,19.807,7.728,19.807,18.615S730.33,386.2,718.848,386.2Zm0-28.628c-5.237,0-9.266,3.763-9.266,10.013s4.029,10.013,9.266,10.013,9.2-3.763,9.2-10.013S724.085,357.571,718.848,357.571Zm-43.172,28.09L660.5,349.507h10.81l10,24.6,10.34-24.6h10.072l-15.242,36.154h-10.81Zm-12.958-15.12H635.39c1.008,4.5,4.835,7.258,10.341,7.258a12.239,12.239,0,0,0,9.064-3.5l5.573,6.048c-3.357,3.831-8.393,5.847-14.906,5.847-12.489,0-20.613-7.863-20.613-18.615,0-10.819,8.258-18.615,19.27-18.615,10.609,0,18.8,7.124,18.8,18.749C662.919,368.525,662.785,369.667,662.718,370.541ZM644.186,356.9a8.555,8.555,0,0,0-8.93,7.527h17.793A8.586,8.586,0,0,0,644.186,356.9Z"/>
  <circle class="cls-3" cx="832.75" cy="335.813" r="6"/>
</svg>
