<svg xmlns="http://www.w3.org/2000/svg" width="1000" height="426" viewBox="0 0 1000 426">
  <metadata><?xpacket begin="﻿" id="W5M0MpCehiHzreSzNTczkc9d"?>
<x:xmpmeta xmlns:x="adobe:ns:meta/" x:xmptk="Adobe XMP Core 5.6-c145 79.163499, 2018/08/13-16:40:22        ">
   <rdf:RDF xmlns:rdf="http://www.w3.org/1999/02/22-rdf-syntax-ns#">
      <rdf:Description rdf:about=""
            xmlns:xmp="http://ns.adobe.com/xap/1.0/">
         <xmp:CreatorTool>Adobe Photoshop CC 2019 (Windows)</xmp:CreatorTool>
      </rdf:Description>
   </rdf:RDF>
</x:xmpmeta>
                                                                                                    
                                                                                                    
                                                                                                    
                                                                                                    
                                                                                                    
                                                                                                    
                                                                                                    
                                                                                                    
                                                                                                    
                                                                                                    
                                                                                                    
                                                                                                    
                                                                                                    
                                                                                                    
                                                                                                    
                                                                                                    
                                                                                                    
                                                                                                    
                                                                                                    
                                                                                                    
                           
<?xpacket end="w"?></metadata>
<defs>
    <style>
      .cls-1 {
        fill: #07a485;
      }

      .cls-1, .cls-2 {
        fill-rule: evenodd;
      }

      .cls-2 {
        fill: #393a49;
      }

      .cls-3 {
        fill: #ed1c24;
      }
    </style>
  </defs>
  <path id="Read" class="cls-1" d="M177.641,188.967a54.675,54.675,0,0,1,14.225,1.591,32.669,32.669,0,0,1,10.856,5.335q9.92,7.488,21.9,27.889a477.558,477.558,0,0,1,23.771,47.355L261.5,300.9q1.308,2.808,5.99,13.1h62.142V309.7q-7.677-.746-12.073-3t-9.078-8.048q-5.8-7.111-14.319-22.929t-25.175-50.069q-7.116-14.973-10.669-20.87a43.882,43.882,0,0,0-7.861-9.827q-5.432-5.053-16.659-9.733A133.705,133.705,0,0,0,255.6,178.86a63.851,63.851,0,0,0,14.88-8.61q22.084-17.592,22.087-46.794,0-19.653-10.2-34.533T253.634,66.555q-16.473-6.55-45.484-7.861-7.114-.184-29.76-0.187H88.172v4.305q10.669,0.562,17.408,2.995a29.757,29.757,0,0,1,11.792,7.861,30.311,30.311,0,0,1,8.048,15.161q2.058,9.173,2.059,28.451V255.227q0,19.281-2.059,28.451a30.287,30.287,0,0,1-8.048,15.161,31.789,31.789,0,0,1-11.7,7.768q-6.645,2.526-17.5,3.088V314h119.6V309.7q-10.857-.561-17.5-3.088a31.344,31.344,0,0,1-19.653-23.023q-2.154-9.266-2.153-28.357v-66.26h9.172ZM168.469,64.309h7.675q20.025,0,30.883,2.527a45.792,45.792,0,0,1,18.718,8.891,57.439,57.439,0,0,1,15.816,21.432,68.43,68.43,0,0,1,5.709,27.8q0,27.7-19.653,46.419a43.725,43.725,0,0,1-18.811,10.856q-10.016,2.624-33.224,2.621h-7.113V64.309ZM481.612,212.177q0-23.584-13.663-39.307a57.668,57.668,0,0,0-21.525-15.441,70.949,70.949,0,0,0-27.7-5.335A78.121,78.121,0,0,0,368.746,169.5q-30.138,23.961-30.135,66.073,0,30.883,15.91,52.034a70.116,70.116,0,0,0,27.889,22.461q16.469,7.3,39.494,7.3,26.575,0,42.582-11.137t20.87-33.036l-3.931-1.31q-4.851,14.415-11.567,20.963a41.066,41.066,0,0,1-15.017,9.359,54.334,54.334,0,0,1-19.119,3.369A60.5,60.5,0,0,1,388.9,283.116q-8.208-10.291-12.965-25.83a108.085,108.085,0,0,1-4.756-31.82q0-4.114.749-13.289H481.612Zm-108.567-7.3q2.238-20.96,14.255-34.814t28.041-13.851a32.755,32.755,0,0,1,17.887,5.334,39.184,39.184,0,0,1,13.415,14.506q5.589,10.109,6.893,28.825H373.045Zm284.418,99.2q-3.277,2.061-9.078,2.059-12.169,0-15.349-13.29-1.5-6.36-1.5-23.958V199.636q0-13.287-1.5-18.9-3-11.041-15.185-17.969a83.416,83.416,0,0,0-21-7.674,104.329,104.329,0,0,0-24.187-3,107.7,107.7,0,0,0-21.089,2.153,81.982,81.982,0,0,0-18.092,5.521q-13.5,6.555-13.5,16.1a14.173,14.173,0,0,0,4.3,10.576,14.657,14.657,0,0,0,10.669,4.211q9.73,0,13.477-8.8L550.118,171a24.057,24.057,0,0,1,8.985-10.856,24.329,24.329,0,0,1,13.663-3.931,28.192,28.192,0,0,1,12.26,2.808,26.981,26.981,0,0,1,9.64,7.487q8.233,10.107,8.235,32.006,0,10.3-2.246,16.1a22.514,22.514,0,0,1-8.235,10.108,49.86,49.86,0,0,1-13.009,6.738q-7.769,2.808-24.052,6.926-13.854,3.556-21.151,7.019a44.24,44.24,0,0,0-12.915,9.265q-9.923,10.483-9.92,26.017,0,16.845,12.09,26.766t32.712,9.92q16.118,0,28.3-6.738,6.37-3.553,18.934-14.787,6.186,10.67,12,14.974,8.808,6.549,22.119,6.551,24.145,0,30.883-19.653l-3.182-1.872Q660.739,302.021,657.463,304.08Zm-54.187-50.725q0,23.774-5.785,36.312a35.246,35.246,0,0,1-12.222,15.255,29.461,29.461,0,0,1-17.258,5.709,21.631,21.631,0,0,1-17.261-8.049q-6.808-8.044-6.809-20.4a39.016,39.016,0,0,1,8.771-25.268,49.855,49.855,0,0,1,9.514-8.985q5.224-3.741,18.846-11.043a125.092,125.092,0,0,0,22.2-14.787v31.258Zm255.867,58.96v-4.679q-15.539,0-22.273-8.97t-6.739-30.091V51.956l-57.462,7.3v4.492q15.635,0,22.417,8.955t6.782,29.281v69.2q-13.46-10.854-23.549-14.974t-24.3-4.118q-29.343,0-50.648,17.969a78.451,78.451,0,0,0-20.934,29.105,95.958,95.958,0,0,0-7.475,38.09,91.224,91.224,0,0,0,6.913,35.844,71.091,71.091,0,0,0,19.814,27.234q20.186,17.034,48.6,17.033a85.419,85.419,0,0,0,26.263-3.931,110.77,110.77,0,0,0,26.072-12.915,100.846,100.846,0,0,0,1.872,19.841ZM799.63,271.231q-2.236,13.2-7.829,22.18a38.677,38.677,0,0,1-14.169,13.476,37.447,37.447,0,0,1-18.458,4.867q-20.319,0-34.3-19.092a87.885,87.885,0,0,1-12.678-26.485,108.6,108.6,0,0,1-4.659-31.539,104.99,104.99,0,0,1,4.94-32.007,84.826,84.826,0,0,1,13.7-26.766q14.538-18.714,34.49-18.717a38.107,38.107,0,0,1,17.431,4.305,36.38,36.38,0,0,1,13.517,11.417q5.778,8.239,8.016,21.245t2.238,39.026Q801.868,258.037,799.63,271.231Z"/>
  <path class="cls-2" d="M853.679,380.661V361.576c0-5.846-2.686-8.535-7.318-8.535-5.036,0-8.662,3.092-8.662,9.745v17.875H827.225V344.507h10v4.234c2.82-3.092,7.05-4.772,11.952-4.772,8.527,0,14.973,4.973,14.973,15.994v20.7H853.679Zm-49.887.538c-11.481,0-19.874-7.728-19.874-18.615s8.393-18.615,19.874-18.615S823.6,351.7,823.6,362.584,815.274,381.2,803.792,381.2Zm0-28.628c-5.237,0-9.265,3.763-9.265,10.013s4.028,10.013,9.265,10.013,9.2-3.763,9.2-10.013S809.03,352.571,803.792,352.571Zm-34.041-8.064h10.475v36.154H769.751V344.507Zm-9.6,28.359a7.054,7.054,0,0,0,4.23-1.344l2.82,7.392a14.96,14.96,0,0,1-8.528,2.285c-8.527,0-13.5-4.368-13.5-12.97V353.377H739.6v-8.064h5.573v-8.8h10.475v8.8h9v8.064h-9V368.1C755.652,371.186,757.33,372.866,760.151,372.866Zm-32.564,3.494a14.607,14.607,0,0,1-11.213,4.839c-9.064,0-15.443-5.107-15.443-16.263V344.507h10.474v18.884c0,6.048,2.686,8.736,7.319,8.736,4.834,0,8.326-3.092,8.326-9.745V344.507h10.474v36.154h-9.937v-4.3ZM684.28,330.8h10.474v49.863H684.28V330.8Zm-23.432,50.4c-11.482,0-19.875-7.728-19.875-18.615s8.393-18.615,19.875-18.615,19.807,7.728,19.807,18.615S672.33,381.2,660.848,381.2Zm0-28.628c-5.237,0-9.266,3.763-9.266,10.013s4.029,10.013,9.266,10.013,9.2-3.763,9.2-10.013S666.085,352.571,660.848,352.571Zm-43.172,28.09L602.5,344.507h10.811l10,24.6,10.34-24.6h10.072l-15.242,36.154h-10.81Zm-12.958-15.12H577.39c1.008,4.5,4.835,7.258,10.341,7.258a12.239,12.239,0,0,0,9.064-3.5l5.573,6.048c-3.357,3.831-8.393,5.847-14.906,5.847-12.489,0-20.613-7.863-20.613-18.615,0-10.819,8.258-18.615,19.27-18.615,10.609,0,18.8,7.124,18.8,18.749C604.919,363.525,604.785,364.667,604.718,365.541ZM586.186,351.9a8.555,8.555,0,0,0-8.93,7.527h17.793A8.586,8.586,0,0,0,586.186,351.9Z"/>
  <circle class="cls-3" cx="774.75" cy="330.813" r="6"/>
</svg>
