<svg xmlns="http://www.w3.org/2000/svg" width="1000" height="426" viewBox="0 0 1000 426">
  <metadata><?xpacket begin="﻿" id="W5M0MpCehiHzreSzNTczkc9d"?>
<x:xmpmeta xmlns:x="adobe:ns:meta/" x:xmptk="Adobe XMP Core 5.6-c145 79.163499, 2018/08/13-16:40:22        ">
   <rdf:RDF xmlns:rdf="http://www.w3.org/1999/02/22-rdf-syntax-ns#">
      <rdf:Description rdf:about=""
            xmlns:xmp="http://ns.adobe.com/xap/1.0/">
         <xmp:CreatorTool>Adobe Photoshop CC 2019 (Windows)</xmp:CreatorTool>
      </rdf:Description>
   </rdf:RDF>
</x:xmpmeta>
                                                                                                    
                                                                                                    
                                                                                                    
                                                                                                    
                                                                                                    
                                                                                                    
                                                                                                    
                                                                                                    
                                                                                                    
                                                                                                    
                                                                                                    
                                                                                                    
                                                                                                    
                                                                                                    
                                                                                                    
                                                                                                    
                                                                                                    
                                                                                                    
                                                                                                    
                                                                                                    
                           
<?xpacket end="w"?></metadata>
<defs>
    <style>
      .cls-1 {
        fill: #5362e4;
      }

      .cls-1, .cls-2 {
        fill-rule: evenodd;
      }

      .cls-2 {
        fill: #393a49;
      }

      .cls-3 {
        fill: #ed1c24;
      }
    </style>
  </defs>
  <path id="Suggest" class="cls-1" d="M54.95,311.872q2.637-7.031,9.668-7.031a12.515,12.515,0,0,1,3.955.586q1.758,0.586,10.84,4.541a91.286,91.286,0,0,0,36.328,7.471q20.655,0,35.889-9.279a57.353,57.353,0,0,0,22.852-26.379,63.024,63.024,0,0,0,5.42-25.719q0-20.235-11.994-35.486-10.533-13.636-34.373-24.928l-20.623-9.97q-31.448-14.955-31.448-39.445a35.452,35.452,0,0,1,2.266-12.316,34.091,34.091,0,0,1,6.216-10.7q9.5-11.145,25.882-11.144a36.226,36.226,0,0,1,19.886,5.493q8.628,5.493,15.793,16.919a79.817,79.817,0,0,1,6.8,13.7q2.849,7.4,6.8,21.314h3.369l-1.026-58.155H164.08q-1.758,7.472-6.884,7.471a16.241,16.241,0,0,1-4.688-.806q-2.637-.8-9.961-3.735a108.833,108.833,0,0,0-15.674-5.493,55.15,55.15,0,0,0-12.744-1.392,52.347,52.347,0,0,0-36.767,14.356,56.435,56.435,0,0,0-13.7,19.336,58.135,58.135,0,0,0-4.907,23.437q0,19.776,12.6,33.545a61.8,61.8,0,0,0,11.939,9.814,233,233,0,0,0,21.314,11.866q15.82,8.058,23.51,13.33a49.721,49.721,0,0,1,11.939,10.986,44.709,44.709,0,0,1,6.518,13.33,51.073,51.073,0,0,1,2.417,15.235q0,17.286-10.986,28.564t-27.832,11.279q-24.17,0-40.137-24.55-8.5-13.3-14.649-36.387l-3.369-.147-0.439,60.5H54.95Zm287.11-2.2V306.6q-6.593-.44-10.108-2.268A16.48,16.48,0,0,1,325.8,298.4a25,25,0,0,1-3.149-9.874q-0.807-6.071-.806-21.142V187.947H278.778v3.222q11.13,1.9,15.234,5.853a15.6,15.6,0,0,1,4.468,7.754q1.1,4.536,1.1,14.484l0.147,10.826V258.76q0,17.118-1.389,24.58a31.377,31.377,0,0,1-5.626,13.168,27.7,27.7,0,0,1-11.252,8.777,36.975,36.975,0,0,1-15.344,3.218,30.855,30.855,0,0,1-13.445-2.856,21.777,21.777,0,0,1-9.206-7.837,32.977,32.977,0,0,1-4.019-12.378q-1.1-7.543-1.1-23.218V187.947H195.281v3.222q10.987,1.9,15.235,5.853a16.652,16.652,0,0,1,4.394,7.754q1.172,4.539,1.172,14.484l0.147,11.121V281.3q0,16.1,10.84,24.875,11.13,8.927,29.443,8.924,25.049,0,43.359-18.285a87.23,87.23,0,0,0,1.905,18.285ZM386.444,323.3a13.663,13.663,0,0,0-4.175-10.4,15.016,15.016,0,0,0-10.767-3.955,20.151,20.151,0,0,0-15.381,6.811,23.585,23.585,0,0,0-6.3,16.626,27.963,27.963,0,0,0,8.507,20.8q13.345,12.888,45.321,12.891,29.773,0,45.177-10.987,14.958-10.693,14.959-29.736,0-17.286-12.911-26.807a44.715,44.715,0,0,0-15.406-7.1,87.706,87.706,0,0,0-21.567-2.271H389.7q-18.341,0-18.34-9.375,0-10.69,21.533-12.011,15.717-1.023,18.654-1.465a50.941,50.941,0,0,0,18.361-7.471q17.036-11.13,17.038-30.322,0-15.381-11.95-29.883,5.986-5.418,11.393-5.42a9.47,9.47,0,0,1,7.89,3.516l3.36,4.394q3.844,4.981,8.576,4.981a6.705,6.705,0,0,0,5.173-2.271,8.054,8.054,0,0,0,2.071-5.639q0-5.566-5.287-9.375-4.409-3.076-11.6-3.077A31.105,31.105,0,0,0,444.6,188.02a54.725,54.725,0,0,0-12.41,7.69q-14.66-9.96-28.727-9.961a46.258,46.258,0,0,0-33.272,14.475Q359.2,211.773,359.2,226.541a34.887,34.887,0,0,0,7.031,21.128q7.031,9.579,19.775,15.424-13.184,3.382-18.164,6.32-9.667,6.024-9.668,16.456,0,9.846,9.082,16.9,8.79,6.759,23.145,6.759H413.69q14.942,0,23,5.786t8.056,16.626q0,13.474-12.085,21.9t-31.713,8.423q-18.457,0-30.323-7.617t-11.865-19.483q0-7.47,3.882-12.158a12.421,12.421,0,0,1,10.034-4.687,11.086,11.086,0,0,1,6.152,1.611,17.5,17.5,0,0,1,4.981,5.713l2.637-.732V323.3Zm-4.4-110.934a46.063,46.063,0,0,1,5.111-12.866q6.424-10.525,16.94-10.526,8.757,0,14.309,8.041,7.592,10.821,7.592,28.946,0,17.544-5.841,27.413T403.8,263.24q-10.37,0-17.013-9.941t-6.642-25.731A62.523,62.523,0,0,1,382.042,212.364ZM509.93,323.3a13.663,13.663,0,0,0-4.175-10.4,15.016,15.016,0,0,0-10.766-3.955,20.148,20.148,0,0,0-15.381,6.811,23.586,23.586,0,0,0-6.3,16.626,27.966,27.966,0,0,0,8.507,20.8q13.346,12.888,45.321,12.891,29.774,0,45.177-10.987,14.958-10.693,14.96-29.736,0-17.286-12.912-26.807a44.706,44.706,0,0,0-15.406-7.1,87.7,87.7,0,0,0-21.567-2.271H513.182q-18.341,0-18.34-9.375,0-10.69,21.533-12.011,15.717-1.023,18.654-1.465a50.941,50.941,0,0,0,18.361-7.471q17.035-11.13,17.038-30.322,0-15.381-11.95-29.883,5.988-5.418,11.394-5.42a9.468,9.468,0,0,1,7.889,3.516l3.36,4.394q3.846,4.981,8.577,4.981a6.7,6.7,0,0,0,5.172-2.271,8.054,8.054,0,0,0,2.072-5.639q0-5.566-5.288-9.375-4.407-3.076-11.6-3.077a31.1,31.1,0,0,0-11.968,2.271,54.682,54.682,0,0,0-12.41,7.69q-14.661-9.96-28.727-9.961a46.263,46.263,0,0,0-33.273,14.475q-10.994,11.549-10.993,26.317a34.894,34.894,0,0,0,7.031,21.128q7.032,9.579,19.775,15.424-13.183,3.382-18.164,6.32-9.668,6.024-9.668,16.456,0,9.846,9.082,16.9,8.79,6.759,23.145,6.759h23.291q14.941,0,23,5.786t8.057,16.626q0,13.474-12.085,21.9t-31.714,8.423q-18.458,0-30.322-7.617t-11.866-19.483q0-7.47,3.882-12.158a12.423,12.423,0,0,1,10.034-4.687,11.091,11.091,0,0,1,6.153,1.611,17.5,17.5,0,0,1,4.98,5.713l2.637-.732V323.3Zm-4.4-110.934a46.033,46.033,0,0,1,5.11-12.866q6.424-10.525,16.94-10.526,8.759,0,14.31,8.041,7.59,10.821,7.592,28.946,0,17.544-5.841,27.413t-16.354,9.868q-10.368,0-17.013-9.941t-6.642-25.731A62.524,62.524,0,0,1,505.529,212.364ZM713.69,232.771q0-18.457-10.694-30.762a45.127,45.127,0,0,0-16.845-12.085,55.538,55.538,0,0,0-21.68-4.175,61.137,61.137,0,0,0-39.111,13.623q-23.587,18.753-23.584,51.709,0,24.171,12.451,40.723a54.869,54.869,0,0,0,21.826,17.578q12.888,5.713,30.908,5.713,20.8,0,33.325-8.716t16.333-25.854l-3.076-1.026q-3.8,11.281-9.052,16.407a32.153,32.153,0,0,1-11.753,7.324,42.514,42.514,0,0,1-14.962,2.637,47.352,47.352,0,0,1-36.644-17.579,60.425,60.425,0,0,1-10.146-20.214,84.584,84.584,0,0,1-3.722-24.9q0-3.22.586-10.4h85.84Zm-84.966-5.713q1.75-16.4,11.156-27.246t21.945-10.84a25.631,25.631,0,0,1,14,4.175,30.656,30.656,0,0,1,10.5,11.352q4.374,7.911,5.395,22.559H628.724Zm115.727,85.4a8.51,8.51,0,0,1,7.764-4.394,12.93,12.93,0,0,1,3.369.366q1.318,0.368,7.764,2.856a54.7,54.7,0,0,0,19.629,3.809q17.87,0,29.3-11.719,9.96-10.107,9.961-25.488a36.423,36.423,0,0,0-6.869-22.119Q808.5,246.4,794.611,240.1l-15.491-7.031q-10.815-4.834-16-10.62a18.924,18.924,0,0,1-5.189-12.964,20.109,20.109,0,0,1,5.768-14.575,18.743,18.743,0,0,1,13.95-5.933,25.287,25.287,0,0,1,11.831,3.149,33.8,33.8,0,0,1,10.517,8.716,32.593,32.593,0,0,1,5.184,8.2,67.494,67.494,0,0,1,3.434,11.28h3.076l-1.612-33.252h-2.929q-2.493,4.393-5.274,4.394a11.928,11.928,0,0,1-4.1-.879l-4.981-2.2a36.4,36.4,0,0,0-13.916-2.637q-16.7,0-26.806,10.84a32.327,32.327,0,0,0-8.789,22.705,30.781,30.781,0,0,0,8.768,21.68q6.135,6.591,24.55,16.406a165.721,165.721,0,0,1,14.978,8.643,34.261,34.261,0,0,1,7.381,6.738,25.789,25.789,0,0,1,5.26,16.113q0,11.281-7.306,17.432a24.182,24.182,0,0,1-15.928,5.566q-15.051,0-26.3-16.552-6.138-9.081-10.229-24.317h-2.343v41.455h2.343Zm131.543-162.6h-5.456l-1.474,4.834a76.194,76.194,0,0,1-5.606,13.842,58.76,58.76,0,0,1-7.811,10.767q-8.072,8.789-17.592,11.865v2.344h15.674v88.77q0,12.744,1.318,17.651a16.249,16.249,0,0,0,5.567,8.423q7.909,6.735,25.195,6.738,13.037,0,21.753-4.248a30.392,30.392,0,0,0,13.55-13.037l-2.191-1.9q-5.256,7.179-9.636,9.887a20.459,20.459,0,0,1-10.952,2.71,23.392,23.392,0,0,1-9.782-2.051,18.557,18.557,0,0,1-7.3-5.712q-5.26-6.592-5.258-21.973V193.513H913.2v-5.566H875.994V149.861Z"/>
  <path class="cls-2" d="M911.679,385.661V366.576c0-5.847-2.686-8.535-7.318-8.535-5.036,0-8.662,3.092-8.662,9.745v17.875H885.224V349.507h10v4.234c2.82-3.092,7.05-4.772,11.952-4.772,8.527,0,14.973,4.973,14.973,15.994v20.7H911.679Zm-49.887.538c-11.481,0-19.874-7.728-19.874-18.615s8.393-18.615,19.874-18.615S881.6,356.7,881.6,367.584,873.274,386.2,861.792,386.2Zm0-28.628c-5.237,0-9.265,3.763-9.265,10.013s4.028,10.013,9.265,10.013,9.2-3.763,9.2-10.013S867.03,357.571,861.792,357.571Zm-34.041-8.064h10.475v36.154H827.751V349.507Zm-9.6,28.359a7.055,7.055,0,0,0,4.231-1.344l2.82,7.392a14.96,14.96,0,0,1-8.528,2.285c-8.527,0-13.5-4.368-13.5-12.97V358.377H797.6v-8.064h5.573v-8.8h10.475v8.8h9v8.064h-9V373.1C813.652,376.186,815.33,377.866,818.15,377.866Zm-32.563,3.494a14.607,14.607,0,0,1-11.213,4.839c-9.064,0-15.443-5.107-15.443-16.263V349.507h10.474V368.39c0,6.049,2.686,8.737,7.319,8.737,4.834,0,8.326-3.092,8.326-9.745V349.507h10.474v36.154h-9.937v-4.3ZM742.28,335.8h10.474v49.863H742.28V335.8Zm-23.432,50.4c-11.482,0-19.875-7.728-19.875-18.615s8.393-18.615,19.875-18.615,19.807,7.728,19.807,18.615S730.33,386.2,718.848,386.2Zm0-28.628c-5.237,0-9.266,3.763-9.266,10.013s4.029,10.013,9.266,10.013,9.2-3.763,9.2-10.013S724.085,357.571,718.848,357.571Zm-43.172,28.09L660.5,349.507h10.81l10,24.6,10.34-24.6h10.072l-15.242,36.154h-10.81Zm-12.958-15.12H635.39c1.008,4.5,4.835,7.258,10.341,7.258a12.239,12.239,0,0,0,9.064-3.5l5.573,6.048c-3.357,3.831-8.393,5.847-14.906,5.847-12.489,0-20.613-7.863-20.613-18.615,0-10.819,8.258-18.615,19.27-18.615,10.609,0,18.8,7.124,18.8,18.749C662.919,368.525,662.785,369.667,662.718,370.541ZM644.186,356.9a8.555,8.555,0,0,0-8.93,7.527h17.793A8.586,8.586,0,0,0,644.186,356.9Z"/>
  <circle class="cls-3" cx="832.75" cy="335.813" r="6"/>
</svg>
